<svg width="354" height="194" viewBox="0 0 354 194" fill="none" xmlns="http://www.w3.org/2000/svg">
<g clip-path="url(#clip0)">
<path d="M348.037 136.381C341.846 145.999 331.128 153.358 318.865 158.957C313.835 161.235 308.605 163.251 303.211 164.993C299.682 166.143 296.104 167.193 292.479 168.142C274.495 172.871 255.466 175.182 236.405 175.19C233.29 175.192 230.174 175.132 227.059 175.009C226.166 174.974 225.272 174.935 224.378 174.89C219.67 174.655 214.976 174.278 210.298 173.759C210.206 173.749 210.111 173.74 210.019 173.727C200.234 172.639 190.586 170.937 181.178 168.637C179.355 168.192 177.542 167.724 175.74 167.234C175.254 167.106 174.768 166.97 174.284 166.836C172.254 166.269 170.238 165.675 168.238 165.052C166.556 164.53 164.883 163.988 163.221 163.426C161.584 162.869 159.959 162.295 158.345 161.702C155.703 160.727 153.089 159.705 150.504 158.636C148.51 157.804 146.541 156.942 144.6 156.048C139.783 153.832 135.123 151.431 130.638 148.852C129.054 147.941 127.492 147.008 125.952 146.051C124.884 145.388 123.826 144.71 122.751 144.052C120.484 142.664 118.151 141.345 115.549 140.357C114.763 140.059 113.958 139.792 113.137 139.556C110.066 138.7 106.831 138.226 103.558 138.153C97.9756 137.987 92.2121 138.769 86.8133 139.927C84.2471 140.474 81.7103 141.102 79.1735 141.746C78.1319 142.01 77.0914 142.276 76.0519 142.542C73.9029 143.094 71.7541 143.633 69.5853 144.126C68.8624 144.289 68.1395 144.45 67.4132 144.601C64.5139 145.23 61.5591 145.703 58.5709 146.016C51.8977 146.655 45.1202 146.211 38.6943 144.712L38.1456 144.584C37.2256 144.366 36.3154 144.128 35.4084 143.869L34.8597 143.71C33.9858 143.455 33.1281 143.182 32.2868 142.891L31.7381 142.703C30.9297 142.419 30.1378 142.122 29.3592 141.807C29.2934 141.783 29.231 141.758 29.1652 141.731C28.8629 141.612 28.564 141.483 28.2681 141.362C23.4973 139.351 19.1588 136.808 15.4006 133.818C15.2921 133.736 15.1902 133.652 15.072 133.57C14.5494 133.145 14.0368 132.711 13.5407 132.269C13.3567 132.105 13.1726 131.942 12.992 131.774C12.4038 131.232 11.8353 130.678 11.2866 130.113C11.2045 130.032 11.1255 129.948 11.0467 129.866C8.80278 127.527 6.94155 124.993 5.50337 122.319C5.45732 122.237 5.41465 122.153 5.37517 122.072C4.93812 121.223 4.53835 120.359 4.17585 119.481C4.02792 119.115 3.88672 118.739 3.76174 118.372C3.71906 118.263 3.67959 118.152 3.64349 118.043C1.84618 112.669 1.65222 107.079 1.65222 101.522V99.5792C1.70485 90.5897 1.88888 81.4468 3.65008 72.581C3.65708 72.5194 3.66913 72.4583 3.68618 72.3979C4.27768 69.4135 5.07949 66.4548 6.08821 63.5346C7.14749 60.4711 8.49933 57.4692 10.1332 54.5525C14.1847 47.3767 20.0764 40.8467 26.6186 34.7943C43.0811 19.5743 64.6925 6.77915 89.9875 2.00602C117.244 -3.14816 147.537 1.79075 169.523 14.9719C176.006 18.8567 181.852 23.4344 189.038 26.5175C189.281 26.6239 189.528 26.7278 189.777 26.8292C190.727 27.2177 191.698 27.5707 192.689 27.8883C194.002 28.3108 195.354 28.6622 196.734 28.9399C201.101 29.8233 205.665 29.9025 210.019 28.8063C210.374 28.7147 210.729 28.6182 211.08 28.5118C211.826 28.2891 212.539 28.0813 213.226 27.8883C217.911 26.5744 221.519 25.936 227.214 26.1661C240.737 26.7398 254.069 28.841 266.763 32.3991C267.276 32.5402 267.788 32.6862 268.298 32.8321C301.39 42.371 329.843 61.3125 344.623 85.6533C345.017 86.2966 345.397 86.9449 345.763 87.5981C354.579 103.093 357.76 121.272 348.037 136.381Z" fill="#D6FFF3"/>
<path d="M20.902 126.842V126.941L20.8517 126.986L20.902 126.842Z" fill="#CACACA"/>
<path d="M79.1735 141.746C78.1319 142.01 77.0914 142.276 76.0519 142.542V141.746H79.1735Z" fill="white"/>
<path d="M196.734 14.5415H189.038V29.0303H196.734V14.5415Z" fill="#389917"/>
<path d="M210.019 27.8883V173.727C200.234 172.639 190.586 170.937 181.178 168.637C179.355 168.192 177.542 167.724 175.74 167.234C175.254 167.106 174.768 166.97 174.284 166.836C172.254 166.269 170.238 165.675 168.238 165.052C166.556 164.53 164.883 163.988 163.221 163.426C161.584 162.87 159.959 162.295 158.345 161.702C155.703 160.727 153.089 159.705 150.504 158.636C148.51 157.804 146.541 156.942 144.6 156.048V27.8883H210.019Z" fill="#29B82F"/>
<path d="M236.405 27.8883V175.19C233.29 175.192 230.174 175.132 227.059 175.009C226.166 174.974 225.272 174.935 224.378 174.89C219.67 174.655 214.976 174.278 210.298 173.759C210.206 173.749 210.111 173.74 210.019 173.727V27.8883H236.405Z" fill="#1B9A20"/>
<path d="M166.314 42.3766H156.419V49.828H166.314V42.3766Z" fill="white"/>
<path d="M182.256 42.3766H172.361V49.828H182.256V42.3766Z" fill="white"/>
<path d="M198.199 42.3766H188.304V49.828H198.199V42.3766Z" fill="white"/>
<path d="M166.589 59.3492H156.694V66.8006H166.589V59.3492Z" fill="white"/>
<path d="M182.531 59.3492H172.636V66.8006H182.531V59.3492Z" fill="white"/>
<path d="M198.474 59.3492H188.578V66.8006H198.474V59.3492Z" fill="white"/>
<path d="M166.864 76.3218H156.969V83.7732H166.864V76.3218Z" fill="white"/>
<path d="M182.806 76.3218H172.911V83.7732H182.806V76.3218Z" fill="white"/>
<path d="M198.748 76.3218H188.853V83.7732H198.748V76.3218Z" fill="white"/>
<path d="M167.139 93.2944H157.244V100.746H167.139V93.2944Z" fill="white"/>
<path d="M183.081 93.2944H173.186V100.746H183.081V93.2944Z" fill="white"/>
<path d="M199.023 93.2944H189.128V100.746H199.023V93.2944Z" fill="white"/>
<path d="M167.414 110.267H157.519V117.718H167.414V110.267Z" fill="white"/>
<path d="M183.356 110.267H173.461V117.718H183.356V110.267Z" fill="white"/>
<path d="M199.298 110.267H189.403V117.718H199.298V110.267Z" fill="white"/>
<path d="M167.689 127.24H157.793V134.691H167.689V127.24Z" fill="white"/>
<path d="M183.631 127.24H173.736V134.691H183.631V127.24Z" fill="white"/>
<path d="M199.573 127.24H189.678V134.691H199.573V127.24Z" fill="white"/>
<path d="M167.964 144.212H158.068V151.664H167.964V144.212Z" fill="white"/>
<path d="M183.906 144.212H174.01V151.664H183.906V144.212Z" fill="white"/>
<path d="M199.848 144.212H189.953V151.664H199.848V144.212Z" fill="white"/>
<path d="M168.238 161.184V165.052C166.556 164.53 164.883 163.988 163.221 163.426C161.584 162.87 159.959 162.295 158.344 161.702V161.184H168.238Z" fill="white"/>
<path d="M184.182 161.184V168.637H181.178C179.355 168.192 177.542 167.724 175.74 167.234C175.254 167.106 174.768 166.97 174.284 166.836V161.184L184.182 161.184Z" fill="white"/>
<path d="M200.123 161.185H190.228V168.636H200.123V161.185Z" fill="white"/>
<path d="M286.431 88.3269H278.734V96.9141H286.431V88.3269Z" fill="#389917"/>
<path d="M292.479 96.1769V168.142C274.495 172.871 255.466 175.182 236.405 175.19C233.289 175.192 230.174 175.132 227.059 175.009V96.1769H292.479Z" fill="#29B82F"/>
<path d="M318.865 96.1769V158.957C313.835 161.235 308.605 163.251 303.211 164.993C299.682 166.143 296.104 167.193 292.479 168.142V96.1769H318.865Z" fill="#1B9A20"/>
<path d="M249.873 110.267H239.978V117.718H249.873V110.267Z" fill="white"/>
<path d="M265.816 110.267H255.92V117.718H265.816V110.267Z" fill="white"/>
<path d="M281.758 110.267H271.863V117.718H281.758V110.267Z" fill="white"/>
<path d="M250.148 127.24H240.253V134.691H250.148V127.24Z" fill="white"/>
<path d="M266.09 127.24H256.195V134.691H266.09V127.24Z" fill="white"/>
<path d="M282.033 127.24H272.138V134.691H282.033V127.24Z" fill="white"/>
<path d="M250.423 144.212H240.528V151.664H250.423V144.212Z" fill="white"/>
<path d="M266.365 144.212H256.47V151.664H266.365V144.212Z" fill="white"/>
<path d="M282.308 144.212H272.412V151.664H282.308V144.212Z" fill="white"/>
<path d="M250.698 161.185H240.803V168.636H250.698V161.185Z" fill="white"/>
<path d="M266.64 161.185H256.745V168.636H266.64V161.185Z" fill="white"/>
<path d="M282.582 161.185H272.687V168.636H282.582V161.185Z" fill="white"/>
<path d="M234.803 177.459C234.803 177.459 238.323 186.887 253.065 186.458C267.808 186.03 274.181 177.288 274.181 177.288L234.803 177.459Z" fill="#3F3D56"/>
<path d="M31.6535 140.693L27.4417 146.502L28.1254 157.405L129.055 179.988L173.005 184.059L164.412 144.589L134.345 140.58L89.2409 141.55L51.001 136.237L31.6535 140.693Z" fill="#2F2E41"/>
<path d="M45.7035 178.916H43.0981C40.5794 178.923 38.1107 178.387 35.9839 177.371C33.8572 176.354 32.1612 174.901 31.0965 173.182C27.0798 166.579 28.2697 157.448 28.2873 157.318C29.1975 149.426 34.9413 144.277 42.5812 144.511C51.0153 144.767 58.2073 166.734 58.5093 167.669C59.0105 169.246 58.8787 170.899 58.1305 172.42C57.1997 174.335 55.5065 175.986 53.2822 177.149C51.058 178.312 48.4112 178.929 45.7035 178.916Z" fill="#3F3D56"/>
<path d="M151.95 194C151.504 193.992 151.06 193.96 150.62 193.903C147.249 193.503 144.062 192.479 141.347 190.922C138.631 189.366 136.472 187.325 135.062 184.985C134.006 183.255 132.99 181.483 132.042 179.72C128.235 172.638 131.426 160.258 136.611 155.466C141.188 151.236 145.794 151.27 152.767 151.319C153.482 151.324 154.224 151.33 154.994 151.331C162.736 151.34 170.92 172.786 173.61 179.833C173.824 180.394 174.001 180.858 174.138 181.206C174.559 182.277 174.509 183.558 173.989 185.013C172.348 189.603 166.94 193.007 160.531 193.484C155.928 193.826 153.041 194 151.95 194Z" fill="#3F3D56"/>
<path d="M28.1255 157.405C28.1255 157.405 25.1664 147.464 29.605 140.693L34.0785 132.552L50.9832 144.378L54.8433 162.885L120.994 170.432C120.994 170.432 116.897 140.093 142.618 138.893C168.338 137.694 180.543 170.432 180.543 170.432L193.377 177.459L282.831 172.489C282.831 172.489 284.41 175.745 282.141 177.459C279.872 179.174 171.298 184.487 171.298 184.487C171.298 184.487 165.835 143.864 144.211 147.635C122.587 151.406 129.055 179.989 129.055 179.989L51.7978 169.746C51.7978 169.746 49.294 142.15 36.5473 142.15C23.8007 142.15 28.1255 157.405 28.1255 157.405Z" fill="#3F3D56"/>
<path d="M43.3695 122.844L57.9435 105.641L120.083 102.899L189.052 103.584L221.146 126.038L121.904 130.323L42.0101 127.067L43.3695 122.844Z" fill="#3F3D56"/>
<path d="M43.3696 122.844C43.3696 122.844 30.9707 123.039 29.605 140.693C29.605 140.693 42.8069 122.696 54.1878 162.804L122.132 171.118C122.132 171.118 119.628 137.694 145.349 140.265C171.07 142.836 177.216 173.517 177.216 173.517C177.216 173.517 182.223 181.059 209.765 179.859C237.307 178.659 278.506 176.774 282.831 172.489C282.831 172.489 292.846 146.949 261.662 130.495L221.146 126.038L129.416 127.409L43.3696 122.844Z" fill="#4ACD57"/>
<path d="M74.4458 134.865H66.7068C66.497 134.866 66.2892 134.836 66.0952 134.775C65.9011 134.715 65.7248 134.627 65.5762 134.516C65.4276 134.404 65.3097 134.272 65.2292 134.126C65.1488 133.98 65.1074 133.824 65.1074 133.666C65.1074 133.508 65.1488 133.351 65.2292 133.205C65.3097 133.06 65.4276 132.927 65.5762 132.816C65.7248 132.704 65.9011 132.616 66.0952 132.556C66.2892 132.496 66.497 132.465 66.7068 132.466H74.4458C74.8673 132.467 75.271 132.594 75.5685 132.819C75.866 133.044 76.0331 133.348 76.0331 133.666C76.0331 133.983 75.866 134.288 75.5685 134.512C75.271 134.737 74.8673 134.864 74.4458 134.865Z" fill="#CACACA"/>
<path d="M192.238 172.146C195.004 172.146 197.246 170.458 197.246 168.375C197.246 166.292 195.004 164.604 192.238 164.604C189.473 164.604 187.231 166.292 187.231 168.375C187.231 170.458 189.473 172.146 192.238 172.146Z" fill="white"/>
<path d="M189.757 149.872C186.329 149.872 182.236 148.77 178.572 146.645C172.108 142.894 169.391 137.357 172.518 134.301C175.644 131.245 183.447 131.81 189.912 135.56C193.036 137.372 195.388 139.65 196.535 141.974C197.689 144.311 197.487 146.417 195.966 147.903C194.612 149.227 192.379 149.872 189.757 149.872Z" fill="white"/>
<path d="M278.744 145.084C276.222 145.084 271.691 143.161 267.205 140.04C264.517 138.169 262.289 136.163 260.933 134.393C259.556 132.595 259.242 131.242 260.05 130.584C260.857 129.925 262.673 130.054 265.163 130.946C267.613 131.824 270.444 133.338 273.133 135.209C278.807 139.157 281.95 143.311 280.288 144.665C280.084 144.813 279.842 144.926 279.575 144.998C279.309 145.07 279.026 145.1 278.744 145.084Z" fill="white"/>
<path d="M67.2054 122.84C67.1512 122.84 67.0968 122.838 67.0422 122.835L50.5833 121.682C50.2829 121.661 49.9947 121.583 49.746 121.454C49.4972 121.326 49.2962 121.152 49.1619 120.948C49.0276 120.745 48.9645 120.519 48.9786 120.292C48.9928 120.065 49.0836 119.845 49.2426 119.652L58.5239 108.384C58.6756 108.199 58.8849 108.046 59.1335 107.936C59.3821 107.826 59.6625 107.764 59.9504 107.755L72.2263 107.347C72.5085 107.337 72.7896 107.379 73.0461 107.468C73.3026 107.557 73.5271 107.691 73.7008 107.859C73.8744 108.027 73.9922 108.224 74.0444 108.433C74.0965 108.642 74.0814 108.857 74.0004 109.061L68.9022 121.889C68.7921 122.164 68.5677 122.404 68.2622 122.576C67.9567 122.747 67.5862 122.84 67.2054 122.84Z" fill="white"/>
<path d="M110.577 125.48C110.415 125.48 110.251 125.474 110.087 125.462L81.6326 123.353C80.9134 123.3 80.2183 123.129 79.5959 122.853C78.9734 122.576 78.4385 122.201 78.0285 121.753C77.6185 121.305 77.3433 120.794 77.222 120.258C77.1007 119.722 77.1363 119.172 77.3264 118.647L81.4198 107.336C81.6953 106.564 82.2931 105.88 83.125 105.384C83.9569 104.888 84.9787 104.606 86.0393 104.581L109.003 103.977C110.249 103.949 111.464 104.273 112.409 104.885C113.354 105.497 113.961 106.353 114.111 107.285L116.006 119.595C116.069 120.005 116.042 120.421 115.924 120.825L115.426 122.539C115.184 123.372 114.571 124.118 113.689 124.652C112.808 125.187 111.71 125.48 110.577 125.48Z" fill="white"/>
<path d="M132.784 126.076C131.952 126.074 131.144 125.86 130.492 125.47C129.84 125.08 129.382 124.535 129.192 123.925L124.172 107.586C124.047 107.179 124.046 106.756 124.168 106.349C124.29 105.941 124.533 105.56 124.878 105.233C125.224 104.906 125.662 104.641 126.162 104.46C126.662 104.278 127.209 104.184 127.764 104.184H187.29C187.783 104.185 188.271 104.26 188.726 104.405C189.18 104.55 189.592 104.761 189.936 105.027L209.379 120.123C209.878 120.511 210.217 121 210.353 121.53C210.488 122.061 210.416 122.609 210.144 123.109C209.871 123.609 209.411 124.038 208.82 124.344C208.229 124.65 207.532 124.82 206.815 124.832L132.866 126.075C132.839 126.075 132.812 126.076 132.784 126.076Z" fill="white"/>
<path d="M57.4354 106.241L57.9435 105.641C57.9435 105.641 60.9025 99.4704 101.646 98.442C142.39 97.4136 180.402 97.9278 189.052 103.584L118.718 103.413L59.3092 106.498L57.4354 106.241Z" fill="#4ACD57"/>
<path d="M38.1406 150.206C33.8665 150.206 30.4016 155.578 30.4016 162.204C30.4016 168.831 33.8665 174.203 38.1406 174.203C42.4148 174.203 45.8797 168.831 45.8797 162.204C45.8797 155.578 42.4148 150.206 38.1406 150.206ZM38.4821 152.777C39.4249 152.777 40.1892 154.159 40.1892 155.863C40.1892 157.566 39.4249 158.948 38.4821 158.948C37.5393 158.948 36.7749 157.566 36.7749 155.863C36.7749 154.159 37.5393 152.777 38.4821 152.777ZM39.5064 162.204C39.5064 162.772 38.9968 163.233 38.3683 163.233C37.7398 163.233 37.2302 162.772 37.2302 162.204C37.2302 161.636 37.7398 161.176 38.3683 161.176C38.9968 161.176 39.5064 161.637 39.5064 162.204V162.204ZM33.5598 162.865C32.0962 162.95 30.8716 162.646 30.8245 162.187C30.7774 161.728 31.9256 161.287 33.3892 161.202C34.8527 161.116 36.0773 161.42 36.1244 161.879C36.1715 162.338 35.0233 162.779 33.5598 162.865L33.5598 162.865ZM38.4821 171.632C37.5393 171.632 36.7749 170.25 36.7749 168.546C36.7749 166.842 37.5393 165.461 38.4821 165.461C39.4249 165.461 40.1892 166.842 40.1892 168.546C40.1892 170.25 39.4249 171.632 38.4821 171.632H38.4821ZM42.8922 162.865C41.4286 162.95 40.204 162.646 40.1569 162.187C40.1098 161.728 41.258 161.287 42.7216 161.202C44.1851 161.116 45.4097 161.42 45.4568 161.879C45.5039 162.338 44.3557 162.779 42.8922 162.865L42.8922 162.865Z" fill="#E4E4E4"/>
<path d="M146.259 158.262C139.471 158.262 133.968 165.13 133.968 173.603C133.968 182.075 139.471 188.944 146.259 188.944C153.048 188.944 158.551 182.075 158.551 173.603C158.551 165.13 153.048 158.262 146.259 158.262ZM138.916 174.754C136.934 174.869 135.275 174.459 135.211 173.837C135.147 173.215 136.703 172.617 138.685 172.502C140.668 172.386 142.327 172.797 142.39 173.419C142.454 174.041 140.899 174.639 138.916 174.754ZM146.267 186.458C144.99 186.458 143.954 184.587 143.954 182.279C143.954 179.971 144.99 178.1 146.267 178.1C147.544 178.1 148.579 179.971 148.579 182.279C148.579 184.587 147.544 186.458 146.267 186.458ZM144.439 173.689C144.439 172.78 145.254 172.043 146.259 172.043C147.265 172.043 148.08 172.78 148.08 173.689C148.08 174.597 147.265 175.334 146.259 175.334C145.254 175.334 144.439 174.597 144.439 173.689ZM146.267 169.277C144.99 169.277 143.954 167.406 143.954 165.098C143.954 162.79 144.99 160.919 146.267 160.919C147.544 160.919 148.579 162.79 148.579 165.098C148.579 167.406 147.544 169.277 146.267 169.277ZM154.061 174.411C152.079 174.527 150.42 174.116 150.356 173.494C150.292 172.872 151.848 172.274 153.83 172.159C155.813 172.043 157.471 172.454 157.535 173.076C157.599 173.698 156.044 174.296 154.061 174.411Z" fill="#E4E4E4"/>
<path d="M103.24 127.581L105.971 132.38C105.971 132.38 110.523 133.751 113.482 129.123L107.486 124.608L103.24 127.581Z" fill="#CACACA"/>
<path d="M99.4838 128.695C94.589 128.695 90.6067 126.696 90.6067 124.238C90.6067 121.781 94.589 119.782 99.4838 119.782C104.379 119.782 108.361 121.781 108.361 124.238C108.361 126.696 104.379 128.695 99.4838 128.695Z" fill="#CACACA"/>
<path d="M270.654 144.378L219.763 145.499C219.763 145.499 208.625 147.851 207.489 154.573C207.489 154.573 209.08 160.062 213.171 160.062C217.262 160.062 279.995 157.597 279.995 157.597C279.995 157.597 284.087 152.892 280.677 149.532C277.268 146.171 270.654 144.378 270.654 144.378Z" fill="#3F3D56"/>
<path d="M275.06 146.52L215.379 148.006L215.402 148.52L275.082 147.034L275.06 146.52Z" fill="#E4E4E4"/>
<path d="M277.231 148.149L212.322 150.364L212.353 150.877L277.261 148.663L277.231 148.149Z" fill="#E4E4E4"/>
<path d="M279.502 150.362L209.895 153.177L209.931 153.69L279.539 150.876L279.502 150.362Z" fill="#E4E4E4"/>
<path d="M37.7789 138.971C37.5009 138.702 37.3046 138.39 37.2038 138.058C37.103 137.726 37.1002 137.381 37.1955 137.048C37.2908 136.714 37.482 136.401 37.7556 136.129C38.0291 135.858 38.3784 135.635 38.7789 135.476L38.1323 130.171L42.3178 129.088L43.0913 136.59C43.4013 137.115 43.4451 137.707 43.2144 138.254C42.9836 138.801 42.4943 139.265 41.8393 139.558C41.1843 139.852 40.4091 139.954 39.6606 139.846C38.9121 139.737 38.2423 139.426 37.7783 138.971L37.7789 138.971Z" fill="#FFB8B8"/>
<path d="M42.2722 108.52C42.2722 108.52 45.1445 103.981 47.6969 105.577C50.2494 107.172 44.1977 120.595 44.1977 120.595L43.2775 133.626L38.4267 133.261L37.0551 120.567L42.2722 108.52Z" fill="#E6E6E6"/>
<path d="M3.74414 175.678L7.34489 177.873L20.3012 168.457L14.9869 165.219L3.74414 175.678Z" fill="#FFB8B8"/>
<path d="M3.77696 174.232L10.8683 178.555C12.0667 179.285 12.8307 180.344 12.9921 181.499C13.1534 182.654 12.6991 183.81 11.7289 184.712L11.6101 184.823L0 177.746L3.77696 174.232Z" fill="#2F2E41"/>
<path d="M53.7875 181.771H58.4201L60.6229 168.314H53.7866L53.7875 181.771Z" fill="#FFB8B8"/>
<path d="M52.6053 180.632H61.7291C63.2711 180.632 64.7499 181.093 65.8403 181.914C66.9307 182.735 67.5433 183.849 67.5435 185.01V185.152H52.6056L52.6053 180.632Z" fill="#2F2E41"/>
<path d="M61.9162 118.687C61.9162 118.687 70.6075 126.654 68.7181 134.623C66.8287 142.591 65.3172 148.566 65.3172 148.566L62.2957 166.493C62.2957 166.493 63.4293 171.376 61.9178 172.633C61.9178 172.633 64.1851 175.599 60.0284 176.737C55.8717 177.875 53.6273 176.344 53.6273 176.344C53.6273 176.344 50.5798 173.038 52.4692 172.186L53.2653 137.002L22.9947 166.777C22.9947 166.777 22.4384 170.399 18.5597 170.438L13.9255 173.038L8.63513 170.761L11.2803 168.2C11.2803 168.2 9.76877 165.354 13.1697 164.785L32.8196 145.436L37.7321 135.476C37.7321 135.476 40.3772 127.793 47.557 124.663V121.332L61.9162 118.687Z" fill="#2F2E41"/>
<path d="M46.9902 104.886C48.1344 103.868 49.7359 103.202 51.4898 103.016C53.2437 102.829 55.0274 103.135 56.5012 103.875L56.8151 104.033C60.1693 106.893 62.4236 110.388 63.3353 114.142L64.7504 119.968L46.9899 122.865L42.8263 112.052C42.2979 110.679 42.4251 109.211 43.1858 107.902C43.9465 106.593 45.2926 105.526 46.9899 104.887L46.9902 104.886Z" fill="#E6E6E6"/>
<path d="M76.1693 140.209C75.6769 140.088 75.2258 139.887 74.8478 139.62C74.4697 139.354 74.1739 139.028 73.9812 138.666C73.7885 138.304 73.7036 137.914 73.7324 137.525C73.7612 137.135 73.9031 136.755 74.148 136.411L69.0246 131.69L72.0756 128.645L79.1865 135.39C79.9258 135.738 80.4699 136.278 80.7157 136.909C80.9614 137.539 80.8918 138.215 80.5199 138.809C80.1481 139.403 79.4998 139.873 78.698 140.131C77.8962 140.39 76.9965 140.417 76.1693 140.209H76.1693Z" fill="#FFB8B8"/>
<path d="M54.5475 109.155C54.5475 109.155 53.4138 103.463 57.1926 103.748C60.9714 104.033 66.6397 119.683 66.6397 119.683L76.8425 132.488L71.93 134.48L59.8378 123.098L54.5475 109.155Z" fill="#E6E6E6"/>
<path d="M61.4676 100.834H43.4732C43.1031 100.834 42.7482 100.723 42.4865 100.526C42.2247 100.329 42.0775 100.062 42.0771 99.7831V93.9425C42.0771 91.8667 43.1721 89.876 45.1212 88.4083C47.0703 86.9405 49.7139 86.116 52.4704 86.116C55.2269 86.116 57.8705 86.9405 59.8196 88.4083C61.7687 89.876 62.8637 91.8667 62.8637 93.9425V99.7831C62.8633 100.062 62.7161 100.329 62.4543 100.526C62.1926 100.723 61.8377 100.834 61.4676 100.834Z" fill="#2F2E41"/>
<path d="M54.6063 100.698C58.8147 100.698 62.2263 98.1294 62.2263 94.9604C62.2263 91.7913 58.8147 89.2223 54.6063 89.2223C50.3979 89.2223 46.9863 91.7913 46.9863 94.9604C46.9863 98.1294 50.3979 100.698 54.6063 100.698Z" fill="#FFB8B8"/>
<path d="M65.3224 94.5266H55.7326L55.6343 93.3369L55.1426 94.5266H53.6661L53.4713 92.1688L52.4968 94.5266H49.6397V94.4098C49.6397 90.996 52.8542 88.2186 56.8064 88.2186H58.1585C62.1095 88.2186 65.3252 90.996 65.3252 94.4098L65.3224 94.5266Z" fill="#2F2E41"/>
<path d="M56.1298 101.925C56.0126 101.925 55.8956 101.918 55.7798 101.905L44.3655 100.581V91.6279C44.3655 90.7134 44.8479 89.8363 45.7067 89.1896C46.5655 88.5429 47.7302 88.1796 48.9447 88.1796H56.9305L56.6203 88.4181C52.2923 91.7356 55.553 97.1168 57.8817 100.029C58.0526 100.239 58.1298 100.484 58.1019 100.729C58.0739 100.973 57.9424 101.205 57.7266 101.389C57.5284 101.561 57.2829 101.698 57.0072 101.79C56.7315 101.883 56.4322 101.929 56.1304 101.926L56.1298 101.925Z" fill="#2F2E41"/>
</g>
<defs>
<clipPath id="clip0">
<rect width="354" height="194" fill="white"/>
</clipPath>
</defs>
</svg>
