<svg width="88" height="64" viewBox="0 0 88 64" fill="none" xmlns="http://www.w3.org/2000/svg">
<path d="M65.4187 0.775011C57.0125 1.00626 50.4969 3.28751 44.1531 5.49376C37.3687 7.85001 30.9656 10.0719 22.0938 10.1625C16.1656 10.2563 10.2281 9.23126 4.39375 7.21251L0.25 5.78126V59.1625L2.33125 59.9031C7.76562 61.825 13.3219 62.9344 18.8531 63.1969C19.7313 63.2375 20.5906 63.2594 21.4344 63.2594C30.85 63.2594 38.0594 60.7594 45.05 58.3469C52.4188 55.7969 59.3687 53.3875 68.8531 53.8344C73.8803 54.0926 78.8424 55.0865 83.5813 56.7844L87.75 58.2594V4.85626L85.6937 4.10626C80.3763 2.1697 74.7942 1.05686 69.1406 0.806262C67.9008 0.75122 66.6593 0.740795 65.4187 0.775011ZM65.5875 6.98126C66.65 6.95001 67.7375 6.95001 68.8656 6.99376C70.0344 7.04376 71.2031 7.15001 72.3687 7.28751C72.8442 9.24829 74.0612 10.9484 75.764 12.0306C77.4669 13.1128 79.5229 13.4928 81.5 13.0906V41.5344C80.4763 41.326 79.4212 41.3256 78.3973 41.5329C77.3734 41.7403 76.4016 42.1514 75.5396 42.7416C74.6777 43.3319 73.9431 44.0894 73.3796 44.9691C72.8162 45.8488 72.4352 46.8327 72.2594 47.8625C71.2243 47.7561 70.1864 47.679 69.1469 47.6313C58.475 47.1625 50.6063 49.8469 43 52.4844C35.6219 55.0406 28.6312 57.4563 19.1531 57.0063C17.9727 56.9445 16.7948 56.8403 15.6219 56.6938C15.1424 54.7384 13.9251 53.0443 12.2248 51.9662C10.5246 50.888 8.47314 50.5093 6.5 50.9094V22.4656C7.52983 22.6752 8.59143 22.6743 9.62089 22.4628C10.6503 22.2514 11.6264 21.8339 12.4903 21.2354C13.3541 20.6369 14.088 19.8698 14.6477 18.9803C15.2073 18.0908 15.5812 17.0972 15.7469 16.0594C17.8875 16.2813 20.0281 16.4094 22.1625 16.375C32.0531 16.275 39.2438 13.7719 46.2031 11.3531C52.3312 9.21876 58.1719 7.21251 65.5875 6.98126ZM44 16.375C37.1063 16.375 31.5 23.3844 31.5 32C31.5 40.6156 37.1063 47.625 44 47.625C50.8937 47.625 56.5 40.6156 56.5 32C56.5 23.3844 50.8937 16.375 44 16.375ZM44 22.625C47.3875 22.625 50.25 26.9188 50.25 32C50.25 37.0813 47.3875 41.375 44 41.375C40.6125 41.375 37.75 37.0813 37.75 32C37.75 26.9188 40.6125 22.625 44 22.625ZM67.4375 22.625C66.1943 22.625 65.002 23.1189 64.1229 23.9979C63.2439 24.877 62.75 26.0693 62.75 27.3125C62.75 28.5557 63.2439 29.748 64.1229 30.6271C65.002 31.5062 66.1943 32 67.4375 32C68.6807 32 69.873 31.5062 70.7521 30.6271C71.6311 29.748 72.125 28.5557 72.125 27.3125C72.125 26.0693 71.6311 24.877 70.7521 23.9979C69.873 23.1189 68.6807 22.625 67.4375 22.625ZM20.5625 32C19.3193 32 18.127 32.4939 17.2479 33.373C16.3689 34.252 15.875 35.4443 15.875 36.6875C15.875 37.9307 16.3689 39.123 17.2479 40.0021C18.127 40.8811 19.3193 41.375 20.5625 41.375C21.8057 41.375 22.998 40.8811 23.8771 40.0021C24.7561 39.123 25.25 37.9307 25.25 36.6875C25.25 35.4443 24.7561 34.252 23.8771 33.373C22.998 32.4939 21.8057 32 20.5625 32Z" fill="#06610A"/>
</svg>
